<svg width="45" height="42" viewBox="0 0 45 42" fill="none" xmlns="http://www.w3.org/2000/svg">
<path d="M18.2498 41.6502C22.4031 40.0168 21.4931 35.5135 19.3931 32.6668C17.3164 29.7502 14.4464 27.7435 11.5531 25.8068C9.4887 24.5057 7.64546 22.883 6.09311 21.0002C5.43978 20.2302 4.10978 18.8068 5.46311 18.5268C6.83978 18.2468 9.21978 19.6002 10.4331 20.1135C12.5564 21.0002 14.6564 22.0268 16.6164 23.2402L18.9731 19.2735C15.3331 16.8702 10.6664 14.7468 6.32645 14.1168C3.85311 13.7435 1.23978 14.2568 0.399778 16.9402C-0.346889 19.2502 0.843112 21.5835 2.19644 23.4035C5.39311 27.6735 10.3631 29.7268 14.0731 33.4135C14.8664 34.1835 15.8231 35.0935 16.2898 36.1668C16.7798 37.1935 16.6631 37.2635 15.5664 37.2635C12.6731 37.2635 9.05645 35.0002 6.69978 33.5068L4.34311 37.4735C7.91311 39.6668 13.8864 43.0968 18.2498 41.6502V41.6502ZM44.1264 5.25016C44.6398 4.73682 44.6398 3.89682 44.1264 3.40682L41.0931 0.373491C40.8487 0.137953 40.5225 0.00634766 40.1831 0.00634766C39.8437 0.00634766 39.5175 0.137953 39.2731 0.373491L36.8931 2.75349L41.7464 7.60682L44.1264 5.25016ZM21.1664 18.4802V23.3335H26.0198L40.3698 8.98349L35.5164 4.13016L21.1664 18.4802Z" fill="#2091F9"/>
</svg>
