<svg width="49" height="47" viewBox="0 0 49 47" fill="none" xmlns="http://www.w3.org/2000/svg">
<path d="M47.6379 4.76792L44.2321 1.36209C43.2917 0.37084 41.6396 0.37084 40.6483 1.36209L17.875 24.1354L24.8646 31.125L47.6379 8.35167C48.6292 7.36042 48.6292 5.70834 47.6379 4.76792V4.76792ZM12.7917 28.5833C10.7694 28.5833 8.82994 29.3867 7.39997 30.8166C5.97001 32.2466 5.16666 34.1861 5.16666 36.2083C5.16666 39.5379 2.21833 41.2917 0.0833282 41.2917C2.42166 44.3925 6.4375 46.375 10.25 46.375C12.9464 46.375 15.5323 45.3039 17.4389 43.3973C19.3455 41.4906 20.4167 38.9047 20.4167 36.2083C20.4167 34.1861 19.6133 32.2466 18.1834 30.8166C16.7534 29.3867 14.8139 28.5833 12.7917 28.5833Z" fill="#2091F9"/>
</svg>
